<svg width="48" height="49" viewBox="0 0 48 49" fill="none" xmlns="http://www.w3.org/2000/svg">
<g clip-path="url(#clip0_964_18504)">
<path d="M42.5886 12.7814H37.519V7.71178C37.519 6.81541 37.1629 5.95576 36.5291 5.32194C35.8953 4.68811 35.0356 4.33203 34.1393 4.33203H13.8608C12.9644 4.33203 12.1048 4.68811 11.4709 5.32194C10.8371 5.95576 10.481 6.81541 10.481 7.71178V12.7814H5.41142C4.06687 12.7814 2.77739 13.3155 1.82665 14.2663C0.875916 15.217 0.341797 16.5065 0.341797 17.851V41.5092C0.341797 42.4056 0.697876 43.2653 1.3317 43.8991C1.96553 44.5329 2.82518 44.889 3.72154 44.889H44.2785C45.1749 44.889 46.0345 44.5329 46.6683 43.8991C47.3022 43.2653 47.6583 42.4056 47.6583 41.5092V17.851C47.6583 16.5065 47.1241 15.217 46.1734 14.2663C45.2227 13.3155 43.9332 12.7814 42.5886 12.7814ZM13.8608 7.71178H34.1393V12.7814H13.8608V7.71178ZM44.2785 41.5092H3.72154V26.3004H17.2405V34.7498H30.7595V26.3004H44.2785V41.5092ZM20.6203 26.3004H27.3798V31.37H20.6203V26.3004ZM3.72154 22.9206V17.851C3.72154 17.4028 3.89958 16.973 4.2165 16.6561C4.53341 16.3392 4.96323 16.1611 5.41142 16.1611H42.5886C43.0368 16.1611 43.4666 16.3392 43.7836 16.6561C44.1005 16.973 44.2785 17.4028 44.2785 17.851V22.9206H3.72154Z" fill="#0D5C63"/>
</g>
<defs>
<clipPath id="clip0_964_18504">
<rect width="48" height="40.7089" fill="white" transform="translate(0 4.25586)"/>
</clipPath>
</defs>
</svg>
