<svg width="48" height="48" viewBox="0 0 48 48" fill="none" xmlns="http://www.w3.org/2000/svg">
<g clip-path="url(#clip0_993_480)">
<path opacity="0.15" d="M43.6503 14.0059H4.35031C4.33231 14.0059 4.32031 14.0177 4.32031 14.0355V19.4408C4.32031 22.985 7.26031 25.8595 10.8783 25.8595C13.3203 25.8595 15.4503 24.5556 16.5843 22.6175C16.7583 22.3153 17.0883 22.1256 17.4423 22.1256C17.7963 22.1256 18.1203 22.3153 18.3003 22.6175C19.4283 24.5556 21.5583 25.8595 24.0003 25.8595C26.4483 25.8595 28.5843 24.5497 29.7063 22.6057C29.8803 22.3093 30.1983 22.1256 30.5403 22.1256H30.5763C30.9243 22.1256 31.2363 22.3093 31.4103 22.6057C32.5383 24.5497 34.6743 25.8595 37.1223 25.8595C40.7403 25.8595 43.6803 22.985 43.6803 19.4408V14.0355C43.6803 14.0177 43.6683 14.0059 43.6503 14.0059Z" fill="#0D5C63"/>
<path d="M46.2 9.74471V2.15244C46.2 1.1034 45.342 0.255859 44.28 0.255859H3.72003C2.65803 0.255859 1.80004 1.1034 1.80004 2.15244V9.74471C0.798037 9.80398 3.71756e-05 10.6278 3.71756e-05 11.6354V19.441C-0.00380525 20.8756 0.290253 22.2956 0.864037 23.6135C1.12204 24.218 1.44004 24.787 1.80004 25.3263V45.7739C1.80004 46.817 2.65803 47.6705 3.72003 47.6705H44.28C45.342 47.6705 46.2 46.823 46.2 45.7739V25.3263C46.5657 24.7856 46.879 24.2122 47.136 23.6135C47.706 22.2918 48 20.8872 48 19.441V11.6354C48 10.6278 47.202 9.80398 46.2 9.74471ZM6.12003 4.52318H41.88V9.73879H6.12003V4.52318ZM27.84 43.4091H20.16V37.2393H27.84V43.4091ZM41.904 43.4091H31.68V35.3427C31.68 34.2936 30.822 33.4461 29.76 33.4461H18.24C17.178 33.4461 16.32 34.2936 16.32 35.3427V43.4091H6.12003V29.0543C6.29403 29.1373 6.47403 29.2203 6.66003 29.2914C7.99803 29.8485 9.42003 30.1271 10.884 30.1271C12.348 30.1271 13.764 29.8485 15.108 29.2914C15.936 28.9476 16.716 28.5091 17.43 27.9816C17.442 27.9756 17.454 27.9756 17.466 27.9816C18.1822 28.5113 18.9622 28.9513 19.788 29.2914C21.126 29.8485 22.548 30.1271 24.012 30.1271C25.476 30.1271 26.892 29.8485 28.236 29.2914C29.064 28.9476 29.844 28.5091 30.558 27.9816C30.57 27.9756 30.582 27.9756 30.594 27.9816C31.3102 28.5113 32.0902 28.9513 32.916 29.2914C34.254 29.8485 35.676 30.1271 37.14 30.1271C38.604 30.1271 40.02 29.8485 41.364 29.2914C41.544 29.2143 41.724 29.1373 41.904 29.0543V43.4091V43.4091ZM43.68 19.441C43.68 22.9853 40.74 25.8598 37.122 25.8598C34.674 25.8598 32.538 24.5499 31.41 22.6059C31.236 22.3096 30.924 22.1259 30.576 22.1259H30.54C30.198 22.1259 29.88 22.3096 29.706 22.6059C29.1304 23.5976 28.2992 24.421 27.297 24.9925C26.2948 25.564 25.1572 25.8633 24 25.8598C21.558 25.8598 19.428 24.5559 18.3 22.6178C18.12 22.3155 17.796 22.1259 17.442 22.1259C17.088 22.1259 16.758 22.3155 16.584 22.6178C16.005 23.6056 15.1728 24.4254 14.1711 24.9945C13.1694 25.5637 12.0336 25.8621 10.878 25.8598C7.26003 25.8598 4.32003 22.9853 4.32003 19.441V14.0357C4.32003 14.018 4.33203 14.0061 4.35003 14.0061H43.65C43.668 14.0061 43.68 14.018 43.68 14.0357V19.441Z" fill="#0D5C63"/>
</g>
<defs>
<clipPath id="clip0_993_480">
<rect width="48" height="47.4146" fill="white" transform="translate(0 0.255859)"/>
</clipPath>
</defs>
</svg>
